<?xml version="1.0" encoding="UTF-8"?>
<svg xmlns="http://www.w3.org/2000/svg" viewBox="0 0 480.73 136.81">
  <defs>
    <style>
      .cls-1 {
        isolation: isolate;
      }

      .cls-2 {
        fill: #aebbc5;
      }

      .cls-3 {
        stroke: #aebbc5;
      }

      .cls-3, .cls-4 {
        fill: none;
        stroke-linecap: round;
        stroke-linejoin: round;
        stroke-width: 13px;
      }

      .cls-5 {
        fill: #d0df00;
      }

      .cls-4 {
        stroke: #d0df00;
      }
    </style>
  </defs>
  <g id="Line_1" data-name="Line 1" class="cls-1">
    <g id="Line_1-2" data-name="Line 1">
      <rect class="cls-4" x="78.43" y="7.76" width="38" height="1"/>
    </g>
  </g>
  <g id="Line_2" data-name="Line 2" class="cls-1">
    <g id="Line_2-2" data-name="Line 2">
      <rect class="cls-4" x="113.43" y="30.76" width="20" height="1"/>
    </g>
  </g>
  <g id="Line_3" data-name="Line 3" class="cls-1">
    <g id="Line_3-2" data-name="Line 3">
      <rect class="cls-4" x="43.43" y="54.76" width="90" height="1"/>
    </g>
  </g>
  <g id="Line_4" data-name="Line 4" class="cls-1">
    <g id="Line_4-2" data-name="Line 4">
      <rect class="cls-4" x="114.43" y="78.76" width="1" height="1"/>
    </g>
  </g>
  <g id="Line_5" data-name="Line 5" class="cls-1">
    <g id="Line_5-2" data-name="Line 5">
      <rect class="cls-3" x="70.43" y="78.76" width="22" height="1"/>
    </g>
  </g>
  <g id="Line_6" data-name="Line 6" class="cls-1">
    <g id="Line_6-2" data-name="Line 6">
      <rect class="cls-3" x="2.43" y="30.76" width="89" height="1"/>
    </g>
  </g>
  <g id="Line_7" data-name="Line 7" class="cls-1">
    <g id="Line_7-2" data-name="Line 7">
      <rect class="cls-3" x="22.43" y="54.76" width="1" height="1"/>
    </g>
  </g>
  <g id="Line_8" data-name="Line 8" class="cls-1">
    <g id="Line_8-2" data-name="Line 8">
      <rect class="cls-3" x="55.43" y="7.76" width="1" height="1"/>
    </g>
  </g>
  <g id="Devo" class="cls-1">
    <g id="Devo-2" data-name="Devo">
      <path class="cls-2" d="M226.46,11.87c-7.53-6.87-17.15-10.3-28.85-10.3h-32.32V83.55h32.32c5.81,0,11.16-.86,16.05-2.58,4.88-1.72,9.15-4.26,12.81-7.62,4.03-3.66,7.06-8.08,9.11-13.27,2.05-5.19,3.08-11.03,3.08-17.53s-1.03-12.23-3.08-17.42c-2.05-5.19-5.09-9.61-9.11-13.27Zm-5.84,44.58c-1.57,3.51-3.57,6.25-5.99,8.23-2.43,1.98-5.13,3.3-8.12,3.98-2.99,.67-5.94,1.01-8.85,1.01h-16.69V15.68h16.69c2.84,0,5.75,.34,8.74,1.01,2.99,.67,5.71,1.98,8.18,3.92,2.46,1.94,4.48,4.69,6.05,8.23,1.57,3.55,2.35,8.16,2.35,13.83s-.78,10.27-2.35,13.78Zm46.48-6.27h39.65v-14.22h-55.65l.32,.62v46.98h60.37v-14.11h-44.69v-19.26ZM380.25,1.68l-22.06,47.49L336.12,1.68h-17.25l38.86,81.87h.9L397.61,1.68h-17.36Zm97.12,24.36c-2.24-5.19-5.28-9.71-9.13-13.55-3.85-3.84-8.34-6.89-13.5-9.13S444.07,0,438.17,0s-11.31,1.12-16.46,3.36c-5.15,2.24-9.65,5.28-13.5,9.13-3.85,3.85-6.89,8.36-9.13,13.55-2.24,5.19-3.36,10.7-3.36,16.52s1.12,11.42,3.36,16.58,5.28,9.65,9.13,13.5c3.84,3.85,8.34,6.89,13.5,9.13,5.15,2.24,10.64,3.36,16.46,3.36s11.42-1.12,16.58-3.36,9.65-5.28,13.5-9.13c3.84-3.84,6.89-8.34,9.13-13.5s3.36-10.68,3.36-16.58-1.12-11.33-3.36-16.52Zm-14.44,27.16c-1.42,3.36-3.33,6.33-5.76,8.9-2.42,2.58-5.25,4.63-8.49,6.16-3.24,1.53-6.73,2.3-10.45,2.3s-7.21-.76-10.45-2.3c-3.24-1.53-6.07-3.58-8.49-6.16s-4.34-5.54-5.76-8.9c-1.42-3.36-2.12-6.91-2.12-10.64s.71-7.19,2.12-10.58c1.42-3.4,3.33-6.36,5.76-8.9,2.42-2.54,5.25-4.57,8.49-6.1,3.24-1.53,6.73-2.3,10.45-2.3s7.21,.77,10.45,2.3c3.24,1.53,6.07,3.57,8.49,6.1,2.42,2.54,4.34,5.51,5.76,8.9,1.42,3.4,2.12,6.93,2.12,10.58s-.71,7.28-2.12,10.64Z"/>
    </g>
  </g>
  <g id="DEVO_E-top" data-name="DEVO E-top" class="cls-1">
    <g id="DEVO_E-top-2" data-name="DEVO E-top">
      <polygon class="cls-2" points="251.42 1.57 251.42 15.55 311.79 15.46 311.79 1.57 251.42 1.57"/>
    </g>
  </g>
  <g id="_" data-name="&amp;amp;" class="cls-1">
    <g id="_-2" data-name="&amp;amp;">
      <path class="cls-5" d="M242.8,126.28c.11-.18,.22-.34,.32-.49,.11-.14,.23-.31,.38-.49,1.51-2.12,2.64-3.85,3.38-5.18,.74-1.33,1.12-2.03,1.16-2.11l-6.53-3.19s-.32,.61-.95,1.73c-.63,1.12-1.59,2.59-2.89,4.43l-4.75-4.91c1.33-.79,2.53-1.63,3.59-2.51,1.06-.88,1.88-1.9,2.46-3.05,.68-1.4,1.04-2.85,1.08-4.35,.04-1.49-.27-2.92-.92-4.29-.61-1.37-1.51-2.56-2.7-3.56-1.19-1.01-2.52-1.71-4-2.11-1.48-.4-2.98-.46-4.51-.19-1.53,.27-2.93,.82-4.18,1.65-1.22,.83-2.22,1.85-3,3.08-.77,1.22-1.25,2.59-1.43,4.1-.25,1.73-.1,3.42,.46,5.08,.56,1.66,1.47,3.24,2.73,4.75-.43,.29-.96,.66-1.59,1.11-.63,.45-1.14,.84-1.54,1.16-1.62,1.37-2.85,2.86-3.7,4.48-.85,1.62-1.14,3.51-.89,5.67,.18,1.48,.62,2.82,1.32,4.02,.7,1.21,1.59,2.24,2.67,3.1,1.08,.86,2.3,1.51,3.67,1.94,1.37,.43,2.83,.61,4.37,.54,.47-.04,1.08-.12,1.84-.24,.76-.13,1.61-.38,2.57-.76,.95-.38,1.99-.89,3.1-1.54,1.12-.65,2.29-1.49,3.51-2.54l5.08,5.18,5.67-4.37-5.78-6.16Zm-16.63-20.95c.14-1.26,.59-2.16,1.35-2.7,.76-.54,1.56-.79,2.4-.76,.85,.04,1.59,.33,2.24,.89,.65,.56,.97,1.31,.97,2.24,0,1.55-.56,2.9-1.67,4.05-.4,.4-.87,.79-1.43,1.19-.56,.4-1.09,.74-1.59,1.03-.68-.72-1.26-1.63-1.73-2.73-.47-1.1-.65-2.17-.54-3.21Zm6.05,22.57c-.43,.36-.93,.7-1.48,1.03-.56,.32-1.19,.59-1.89,.81s-1.48,.31-2.35,.27c-1.19-.07-2.21-.47-3.05-1.19-.85-.72-1.32-1.58-1.43-2.59-.11-.72-.1-1.36,.03-1.92,.13-.56,.3-1.03,.51-1.43,.22-.4,.44-.72,.68-.97,.23-.25,.42-.43,.57-.54,.72-.61,1.57-1.19,2.54-1.73l7.02,7.24c-.32,.32-.7,.67-1.13,1.03Z"/>
    </g>
  </g>
  <g id="Query_Ingest" data-name="Query Ingest" class="cls-1">
    <g id="Query_Ingest-2" data-name="Query Ingest">
      <path class="cls-2" d="M36.15,126.61c.95-1.01,1.74-2.11,2.35-3.29,.61-1.19,1.05-2.41,1.32-3.67,.27-1.26,.4-2.48,.4-3.67,0-2.77-.53-5.38-1.59-7.83-1.06-2.45-2.5-4.58-4.32-6.4-1.82-1.82-3.95-3.26-6.4-4.32-2.45-1.06-5.06-1.59-7.83-1.59s-5.37,.53-7.8,1.59c-2.43,1.06-4.55,2.5-6.37,4.32s-3.26,3.95-4.32,6.4C.53,110.59,0,113.2,0,115.97s.42,5.38,1.27,7.83c.85,2.45,2.15,4.58,3.92,6.4,1.76,1.82,3.99,3.26,6.67,4.32,2.68,1.06,5.86,1.59,9.53,1.59h19.66v-6.97h-8.42c1.4-.68,2.58-1.53,3.54-2.54Zm-7.17-1.65c-1.13,1.17-2.46,2.1-3.99,2.78-1.53,.68-3.15,1.03-4.88,1.03s-3.35-.34-4.88-1.03c-1.53-.68-2.86-1.61-3.99-2.78-1.13-1.17-2.03-2.53-2.69-4.08-.66-1.55-1-3.19-1-4.91s.33-3.38,1-4.94c.66-1.57,1.56-2.92,2.69-4.08,1.13-1.15,2.46-2.07,3.99-2.75,1.53-.68,3.15-1.03,4.88-1.03s3.35,.34,4.88,1.03c1.53,.68,2.86,1.6,3.99,2.75,1.13,1.15,2.03,2.51,2.69,4.08,.66,1.57,1,3.21,1,4.94s-.33,3.37-1,4.91c-.66,1.55-1.56,2.91-2.69,4.08Zm43.73-4.87c0,1.98-.32,3.61-.97,4.91-.65,1.29-1.45,2.32-2.4,3.07-.95,.76-1.98,1.28-3.08,1.56-1.1,.29-2.08,.43-2.94,.43s-1.85-.14-2.94-.43c-1.1-.29-2.12-.81-3.08-1.56-.95-.75-1.75-1.78-2.4-3.07s-.97-2.93-.97-4.91v-23.51h-7.56v23.54c0,2.52,.4,4.81,1.21,6.86s1.95,3.8,3.43,5.24c1.48,1.44,3.26,2.56,5.35,3.35,2.09,.79,4.41,1.19,6.97,1.19s4.93-.4,7.02-1.19c2.09-.79,3.87-1.91,5.35-3.35,1.48-1.44,2.61-3.19,3.4-5.24,.79-2.05,1.19-4.34,1.19-6.86v-23.54h-7.56v23.51Zm15.64,15.97h29.11v-6.8h-21.55v-9.29h19.12v-6.86h-19.12v-9.88h21.55v-6.7h-29.11v39.53Zm65.43-18.09c1.5-2.23,2.25-4.84,2.25-7.83,0-1.98-.33-3.81-1-5.48-.67-1.67-1.6-3.11-2.79-4.32-1.19-1.21-2.62-2.14-4.3-2.81-1.68-.67-3.53-1-5.55-1h-17.96v39.53h7.56v-12.58h7.48c1.51,2.16,3.01,4.28,4.52,6.37,1.51,2.09,3.05,4.16,4.63,6.21h9.02c-3.24-4.46-6.52-8.89-9.84-13.28,2.49-.97,4.48-2.57,5.98-4.81Zm-9.27-1.59c-.74,.27-1.44,.4-2.13,.4h-10.39v-13.55h10.39c1.33,0,2.39,.25,3.18,.76,.79,.5,1.4,1.12,1.83,1.84,.43,.72,.72,1.48,.86,2.27,.14,.79,.22,1.48,.22,2.05,0,1.12-.19,2.09-.57,2.92-.38,.83-.85,1.52-1.43,2.08-.57,.56-1.23,.97-1.96,1.24Zm38.65-15.77c-.85,1.42-1.7,2.86-2.57,4.32-.86,1.46-1.73,2.91-2.59,4.35-.86,1.44-1.69,2.79-2.48,4.05-1.62-2.7-3.28-5.49-4.97-8.37-1.69-2.88-3.35-5.67-4.97-8.37h-8.8c2.38,4.1,4.88,8.19,7.51,12.26,2.63,4.07,5.11,8.15,7.45,12.26v14.96h7.56v-14.96c1.01-1.73,2.18-3.66,3.51-5.8,1.33-2.14,2.68-4.32,4.05-6.53,1.37-2.21,2.71-4.38,4.02-6.51,1.31-2.12,2.47-4.01,3.48-5.67h-8.8c-.76,1.26-1.56,2.6-2.4,4.02Zm90.8,35.45h7.56v-39.47h-7.56v39.47Zm43.08-15.61l-25.97-23.87h-.81v39.47h7.56v-23.49l25.98,23.49h.81v-39.47h-7.56v23.87Zm31.38,.81h14.58c-.36,1.26-.93,2.41-1.7,3.46-.77,1.04-1.68,1.94-2.73,2.7-1.04,.76-2.2,1.34-3.46,1.76-1.26,.41-2.57,.62-3.94,.62-1.8,0-3.48-.37-5.05-1.11-1.57-.74-2.93-1.72-4.1-2.94-1.17-1.22-2.1-2.65-2.78-4.27-.68-1.62-1.03-3.33-1.03-5.13s.34-3.46,1.03-5.1c.68-1.64,1.61-3.07,2.78-4.29,1.17-1.22,2.54-2.2,4.1-2.94,1.57-.74,3.25-1.11,5.05-1.11,2.16,0,4.17,.58,6.02,1.73,1.85,1.15,3.36,2.57,4.51,4.27l6.48-3.94c-1.84-2.77-4.24-4.99-7.21-6.64-2.97-1.66-6.24-2.48-9.8-2.48-2.81,0-5.45,.54-7.94,1.62-2.48,1.08-4.66,2.55-6.52,4.4-1.86,1.85-3.34,4.03-4.43,6.53-1.09,2.5-1.63,5.16-1.63,7.96s.54,5.45,1.63,7.94c1.09,2.48,2.56,4.65,4.43,6.51,1.86,1.85,4.04,3.32,6.52,4.4,2.48,1.08,5.13,1.62,7.94,1.62,2.56,0,4.99-.43,7.32-1.3,2.32-.86,4.37-2.06,6.16-3.59,1.78-1.53,3.24-3.36,4.37-5.48,1.13-2.12,1.81-4.43,2.03-6.91,.04-.29,.05-.71,.05-1.27s.02-1.12,.05-1.7c0-.65,.02-1.35,.05-2.11h-22.79v6.8Zm28.53,14.8h29.11v-6.8h-21.55v-9.29h19.12v-6.86h-19.12v-9.88h21.55v-6.7h-29.11v39.53Zm62.9-18.98c-.85-.85-1.81-1.54-2.89-2.08-1.08-.54-2.17-.97-3.27-1.3-1.1-.32-2.16-.58-3.19-.76-1.03-.18-1.92-.36-2.67-.54-1.01-.25-2.05-.5-3.13-.76-1.08-.25-2.07-.56-2.97-.92-.9-.36-1.64-.81-2.21-1.35-.58-.54-.86-1.21-.86-2s.24-1.47,.73-2.03c.49-.56,1.1-1.02,1.84-1.38,.74-.36,1.52-.62,2.35-.78,.83-.16,1.57-.24,2.21-.24,1.91,0,3.73,.34,5.45,1.03,1.73,.68,3.53,1.67,5.4,2.97l4.21-5.94c-1.22-.86-2.37-1.61-3.43-2.24-1.06-.63-2.15-1.15-3.27-1.57-1.12-.41-2.32-.73-3.62-.94-1.3-.22-2.77-.32-4.43-.32s-3.38,.18-5.16,.54c-1.78,.36-3.4,.98-4.86,1.86-1.46,.88-2.66,2.09-3.59,3.62-.94,1.53-1.4,3.45-1.4,5.75,0,1.58,.26,2.96,.78,4.13,.52,1.17,1.21,2.18,2.08,3.02,.86,.85,1.84,1.55,2.92,2.11,1.08,.56,2.18,1.01,3.29,1.35,1.12,.34,2.2,.61,3.24,.81,1.04,.2,1.96,.37,2.75,.51,1.19,.22,2.33,.45,3.43,.7,1.1,.25,2.05,.56,2.86,.92,.81,.36,1.46,.82,1.94,1.38,.49,.56,.73,1.23,.73,2.03,0,.61-.16,1.23-.49,1.86-.32,.63-.81,1.19-1.46,1.67s-1.44,.88-2.38,1.19c-.94,.31-2.02,.46-3.24,.46-2.3,0-4.51-.49-6.61-1.48-2.11-.99-4.15-2.17-6.13-3.54l-4.1,6.05c1.22,.86,2.41,1.66,3.56,2.38,1.15,.72,2.38,1.34,3.67,1.86,1.3,.52,2.73,.94,4.29,1.24,1.57,.31,3.38,.46,5.43,.46,2.23,0,4.27-.25,6.1-.76s3.42-1.25,4.75-2.24c1.33-.99,2.36-2.24,3.08-3.75,.72-1.51,1.08-3.29,1.08-5.35,0-1.76-.26-3.27-.78-4.51-.52-1.24-1.21-2.29-2.05-3.13Zm5.73-20.55v6.7h11.34v32.83h7.56v-32.83h11.29v-6.7h-30.19Z"/>
    </g>
  </g>
</svg>
